<svg width="120" height="120" viewBox="0 0 120 120" xmlns="http://www.w3.org/2000/svg">
  <circle cx="60" cy="22" r="18" fill="none" stroke="#FF6B9D" stroke-width="5"/>
  <circle cx="60" cy="22" r="11" fill="none" stroke="#FFB3D4" stroke-width="2.5"/>
  <rect x="54" y="38" width="12" height="46" rx="6" fill="#FF6B9D"/>
  <rect x="66" y="50" width="10" height="6" rx="3" fill="#FF6B9D"/>
  <rect x="66" y="62" width="8" height="6" rx="3" fill="#FF6B9D"/>
  <rect x="66" y="74" width="10" height="6" rx="3" fill="#FF6B9D"/>
  <circle cx="55" cy="43" r="2.2" fill="white"/>
  <circle cx="65" cy="43" r="2.2" fill="white"/>
  <path d="M55 50 Q60 54 65 50" stroke="white" stroke-width="1.8" fill="none" stroke-linecap="round"/>
  <path d="M60,95 C60,89 52,89 52,95 C52,101 60,106 60,110 C60,106 68,101 68,95 C68,89 60,89 60,95 Z" fill="#FF9EC4"/>
</svg>
