<svg width="120" height="120" viewBox="0 0 120 120" xmlns="http://www.w3.org/2000/svg">
  <path d="M42,8 L78,8 L78,108 L60,92 L42,108 Z" fill="#FF6B9D"/>
  <path d="M49,15 L71,15 L71,94 L60,83 L49,94 Z" fill="#FFB3D4"/>
  <polygon points="60,36 64,48 76,48 67,56 70,68 60,60 50,68 53,56 44,48 56,48" fill="white" opacity="0.9"/>
  <path d="M53,78 C53,73 46,73 46,78 C46,83 53,87 60,92 C67,87 74,83 74,78 C74,73 67,73 67,78 Z" fill="white" opacity="0.7" transform="scale(0.55) translate(49,48)"/>
</svg>
