<svg width="120" height="120" viewBox="0 0 120 120" xmlns="http://www.w3.org/2000/svg">
  <rect x="10" y="10" width="100" height="100" rx="26" fill="#FFE4F0"/>
  <path d="M60,22 C38,22 20,38 20,58 C20,65 22,72 27,78 L22,98 L43,93 C48,96 54,97 60,97 C82,97 100,81 100,61 C100,41 82,22 60,22 Z" fill="#FF6B9D"/>
  <path d="M45,46 C45,46 47,44 49,44 C51,44 52,45 53,47 L55,51 C56,53 55,55 54,56 C54,56 52,58 53,60 C54,62 58,66 60,67 C62,68 64,67 64,67 C65,66 67,65 69,66 L73,68 C75,69 76,70 76,72 C76,74 74,76 74,76 C68,82 52,72 46,66 C40,60 39,52 45,46 Z" fill="white"/>
</svg>
