<svg width="120" height="120" viewBox="0 0 120 120" xmlns="http://www.w3.org/2000/svg">
  <rect x="10" y="10" width="100" height="100" rx="26" fill="#FFE4F0"/>
  <!-- Estrela grande central -->
  <path d="M60,28 L66,50 L90,50 L71,63 L78,85 L60,72 L42,85 L49,63 L30,50 L54,50 Z" fill="#FF6B9D"/>
  <!-- Brilho na estrela -->
  <ellipse cx="52" cy="42" rx="6" ry="3.5" fill="white" opacity="0.4" transform="rotate(-20,52,42)"/>
  <!-- Sparkle pequeno top right -->
  <path d="M88,22 L90,30 L98,32 L90,34 L88,42 L86,34 L78,32 L86,30 Z" fill="#FF9EC4"/>
  <!-- Sparkle menor bottom left -->
  <path d="M24,76 L25.5,81 L31,82.5 L25.5,84 L24,89 L22.5,84 L17,82.5 L22.5,81 Z" fill="#FFB3D4"/>
  <!-- Pontinhos brilhantes -->
  <circle cx="94" cy="60" r="3.5" fill="#FF6B9D" opacity="0.6"/>
  <circle cx="26" cy="40" r="2.5" fill="#FF9EC4" opacity="0.7"/>
  <circle cx="82" cy="90" r="3" fill="#FFB3D4" opacity="0.8"/>
</svg>
